<svg width="145" height="78" viewBox="0 0 145 78" fill="none" xmlns="http://www.w3.org/2000/svg">
<path d="M62.3396 19.1277C62.7796 19.1277 63.1396 19.2777 63.4196 19.5777C63.6996 19.8577 63.8396 20.2277 63.8396 20.6877V39.1077C63.8396 39.5677 63.7096 39.9277 63.4496 40.1877C63.2096 40.4477 62.8696 40.5777 62.4296 40.5777C62.0096 40.5777 61.6796 40.4477 61.4396 40.1877C61.1996 39.9277 61.0796 39.5677 61.0796 39.1077V25.1577L55.1996 36.3477C54.8196 37.0477 54.3296 37.3977 53.7296 37.3977C53.1296 37.3977 52.6396 37.0477 52.2596 36.3477L46.3496 25.2777V39.1077C46.3496 39.5677 46.2296 39.9277 45.9896 40.1877C45.7496 40.4477 45.4096 40.5777 44.9696 40.5777C44.5496 40.5777 44.2096 40.4477 43.9496 40.1877C43.7096 39.9077 43.5896 39.5477 43.5896 39.1077V20.6877C43.5896 20.2277 43.7296 19.8577 44.0096 19.5777C44.2896 19.2777 44.6496 19.1277 45.0896 19.1277C45.7096 19.1277 46.2096 19.4877 46.5896 20.2077L53.7596 33.9177L60.8696 20.2077C61.2496 19.4877 61.7396 19.1277 62.3396 19.1277ZM74.7842 40.6377C73.3442 40.6377 72.0742 40.3277 70.9742 39.7077C69.8942 39.0877 69.0542 38.2077 68.4542 37.0677C67.8742 35.9077 67.5842 34.5677 67.5842 33.0477C67.5842 31.5077 67.8742 30.1677 68.4542 29.0277C69.0542 27.8677 69.8942 26.9777 70.9742 26.3577C72.0742 25.7377 73.3442 25.4277 74.7842 25.4277C76.2242 25.4277 77.4842 25.7377 78.5642 26.3577C79.6642 26.9777 80.5042 27.8677 81.0842 29.0277C81.6842 30.1677 81.9842 31.5077 81.9842 33.0477C81.9842 34.5677 81.6842 35.9077 81.0842 37.0677C80.5042 38.2077 79.6642 39.0877 78.5642 39.7077C77.4842 40.3277 76.2242 40.6377 74.7842 40.6377ZM74.7842 38.2377C76.1242 38.2377 77.1442 37.7977 77.8442 36.9177C78.5642 36.0377 78.9242 34.7477 78.9242 33.0477C78.9242 31.3677 78.5642 30.0877 77.8442 29.2077C77.1242 28.3077 76.1042 27.8577 74.7842 27.8577C73.4642 27.8577 72.4442 28.3077 71.7242 29.2077C71.0042 30.0877 70.6442 31.3677 70.6442 33.0477C70.6442 34.7477 70.9942 36.0377 71.6942 36.9177C72.4142 37.7977 73.4442 38.2377 74.7842 38.2377ZM93.2178 25.4277C94.4978 25.4277 95.6278 25.7377 96.6078 26.3577C97.5878 26.9777 98.3478 27.8577 98.8878 28.9977C99.4478 30.1377 99.7278 31.4677 99.7278 32.9877C99.7278 34.4877 99.4478 35.8177 98.8878 36.9777C98.3478 38.1377 97.5778 39.0377 96.5778 39.6777C95.5978 40.3177 94.4778 40.6377 93.2178 40.6377C92.1178 40.6377 91.1478 40.4077 90.3078 39.9477C89.4678 39.4677 88.8278 38.7877 88.3878 37.9077V39.1077C88.3878 39.5477 88.2478 39.9077 87.9678 40.1877C87.7078 40.4477 87.3478 40.5777 86.8878 40.5777C86.4278 40.5777 86.0578 40.4477 85.7778 40.1877C85.4978 39.9077 85.3578 39.5477 85.3578 39.1077V20.5677C85.3578 20.1277 85.4978 19.7777 85.7778 19.5177C86.0778 19.2577 86.4578 19.1277 86.9178 19.1277C87.3578 19.1277 87.7078 19.2577 87.9678 19.5177C88.2478 19.7577 88.3878 20.0877 88.3878 20.5077V28.1877C88.8278 27.3077 89.4678 26.6277 90.3078 26.1477C91.1478 25.6677 92.1178 25.4277 93.2178 25.4277ZM92.4978 38.2377C93.7978 38.2377 94.8078 37.7777 95.5278 36.8577C96.2678 35.9377 96.6378 34.6477 96.6378 32.9877C96.6378 31.3477 96.2778 30.0877 95.5578 29.2077C94.8378 28.3077 93.8178 27.8577 92.4978 27.8577C91.1778 27.8577 90.1578 28.3077 89.4378 29.2077C88.7378 30.1077 88.3878 31.3877 88.3878 33.0477C88.3878 34.7077 88.7378 35.9877 89.4378 36.8877C90.1578 37.7877 91.1778 38.2377 92.4978 38.2377ZM110.942 25.4277C112.222 25.4277 113.352 25.7377 114.332 26.3577C115.312 26.9777 116.072 27.8577 116.612 28.9977C117.172 30.1377 117.452 31.4677 117.452 32.9877C117.452 34.4877 117.172 35.8177 116.612 36.9777C116.072 38.1377 115.302 39.0377 114.302 39.6777C113.322 40.3177 112.202 40.6377 110.942 40.6377C109.842 40.6377 108.872 40.4077 108.032 39.9477C107.192 39.4677 106.552 38.7877 106.112 37.9077V39.1077C106.112 39.5477 105.972 39.9077 105.692 40.1877C105.432 40.4477 105.072 40.5777 104.612 40.5777C104.152 40.5777 103.782 40.4477 103.502 40.1877C103.222 39.9077 103.082 39.5477 103.082 39.1077V20.5677C103.082 20.1277 103.222 19.7777 103.502 19.5177C103.802 19.2577 104.182 19.1277 104.642 19.1277C105.082 19.1277 105.432 19.2577 105.692 19.5177C105.972 19.7577 106.112 20.0877 106.112 20.5077V28.1877C106.552 27.3077 107.192 26.6277 108.032 26.1477C108.872 25.6677 109.842 25.4277 110.942 25.4277ZM110.222 38.2377C111.522 38.2377 112.532 37.7777 113.252 36.8577C113.992 35.9377 114.362 34.6477 114.362 32.9877C114.362 31.3477 114.002 30.0877 113.282 29.2077C112.562 28.3077 111.542 27.8577 110.222 27.8577C108.902 27.8577 107.882 28.3077 107.162 29.2077C106.462 30.1077 106.112 31.3877 106.112 33.0477C106.112 34.7077 106.462 35.9877 107.162 36.8877C107.882 37.7877 108.902 38.2377 110.222 38.2377ZM122.337 40.5777C121.897 40.5777 121.527 40.4577 121.227 40.2177C120.947 39.9777 120.807 39.6177 120.807 39.1377V26.9577C120.807 26.4777 120.947 26.1177 121.227 25.8777C121.527 25.6177 121.897 25.4877 122.337 25.4877C122.777 25.4877 123.137 25.6177 123.417 25.8777C123.697 26.1177 123.837 26.4777 123.837 26.9577V39.1377C123.837 39.6177 123.697 39.9777 123.417 40.2177C123.137 40.4577 122.777 40.5777 122.337 40.5777ZM122.337 22.5477C121.757 22.5477 121.297 22.3877 120.957 22.0677C120.617 21.7477 120.447 21.3277 120.447 20.8077C120.447 20.2877 120.617 19.8777 120.957 19.5777C121.297 19.2577 121.757 19.0977 122.337 19.0977C122.897 19.0977 123.347 19.2577 123.687 19.5777C124.047 19.8777 124.227 20.2877 124.227 20.8077C124.227 21.3277 124.057 21.7477 123.717 22.0677C123.377 22.3877 122.917 22.5477 122.337 22.5477ZM140.043 19.1277C140.503 19.1277 140.873 19.2577 141.153 19.5177C141.433 19.7777 141.573 20.1277 141.573 20.5677V39.1077C141.573 39.5677 141.433 39.9277 141.153 40.1877C140.893 40.4477 140.533 40.5777 140.073 40.5777C139.613 40.5777 139.243 40.4477 138.963 40.1877C138.703 39.9277 138.573 39.5677 138.573 39.1077V37.9077C138.133 38.7877 137.493 39.4677 136.653 39.9477C135.813 40.4077 134.843 40.6377 133.743 40.6377C132.483 40.6377 131.353 40.3177 130.353 39.6777C129.373 39.0377 128.603 38.1377 128.043 36.9777C127.503 35.8177 127.233 34.4877 127.233 32.9877C127.233 31.4677 127.503 30.1377 128.043 28.9977C128.603 27.8577 129.373 26.9777 130.353 26.3577C131.333 25.7377 132.463 25.4277 133.743 25.4277C134.843 25.4277 135.803 25.6677 136.623 26.1477C137.463 26.6077 138.103 27.2677 138.543 28.1277V20.5077C138.543 20.0877 138.673 19.7577 138.933 19.5177C139.213 19.2577 139.583 19.1277 140.043 19.1277ZM134.463 38.2377C135.763 38.2377 136.773 37.7877 137.493 36.8877C138.213 35.9877 138.573 34.7077 138.573 33.0477C138.573 31.3877 138.213 30.1077 137.493 29.2077C136.793 28.3077 135.783 27.8577 134.463 27.8577C133.143 27.8577 132.113 28.3077 131.373 29.2077C130.653 30.0877 130.293 31.3477 130.293 32.9877C130.293 34.6277 130.663 35.9177 131.403 36.8577C132.143 37.7777 133.163 38.2377 134.463 38.2377Z" fill="#2D9CDB"/>
<path fill-rule="evenodd" clip-rule="evenodd" d="M29.5567 20.3567C28.1113 30.6238 26.1285 28.9777 21.9206 33.5492L9.79249 44.6688C0.103065 53.2325 -0.00556975 66.6132 7.81868 70.3847C6.86933 64.5796 6.33165 59.7722 12.0172 54.7674L21.4145 46.2087C22.6777 45.3072 29.2928 39.2238 30.5512 36.913C33.9486 30.6748 32.1616 23.6923 29.5583 20.3574L29.5567 20.3567Z" fill="url(#paint0_linear)" stroke="black" stroke-width="0.00694391" stroke-miterlimit="2.61313"/>
<path fill-rule="evenodd" clip-rule="evenodd" d="M24.8007 8.2957C24.6543 15.3177 20.7859 16.6445 16.8226 20.7667C14.4762 23.2058 9.55556 25.792 7.74637 31.0743C6.02911 36.0858 7.1664 40.4553 8.61051 42.9337C9.46044 41.9801 10.061 39.4328 11.2685 37.9721L21.483 28.2603C23.7022 26.3923 26.5816 24.8968 27.5834 19.4758C28.383 15.1504 26.6625 10.1789 24.8024 8.29641L24.8007 8.2957Z" fill="#2D9CDB" stroke="black" stroke-width="0.00694391" stroke-miterlimit="2.61313"/>
<path fill-rule="evenodd" clip-rule="evenodd" d="M12.2239 19.1378C14.861 17.2524 16.9218 14.7017 18.4628 13.5746C27.5981 6.8969 18.659 -2.0853 13.323 6.3689C10.5171 10.814 11.0386 14.9969 11.345 19.6523L12.2223 19.137L12.2239 19.1378Z" fill="#2D9CDB" stroke="black" stroke-width="0.00694391" stroke-miterlimit="2.61313"/>
<defs>
<linearGradient id="paint0_linear" x1="17.311" y1="8.69831" x2="8.28932" y2="75.5116" gradientUnits="userSpaceOnUse">
<stop stop-color="#1C6B95"/>
<stop offset="0.239216" stop-color="#188ECD"/>
<stop offset="0.670588" stop-color="#188ECD"/>
<stop offset="1" stop-color="#1C6B95"/>
</linearGradient>
</defs>
</svg>
