<svg width="106" height="37" viewBox="0 0 106 37" fill="none" xmlns="http://www.w3.org/2000/svg">
<path d="M39.5025 6.96C39.8545 6.96 40.1425 7.08 40.3665 7.32C40.5905 7.544 40.7025 7.84 40.7025 8.208V22.944C40.7025 23.312 40.5985 23.6 40.3905 23.808C40.1985 24.016 39.9265 24.12 39.5745 24.12C39.2385 24.12 38.9745 24.016 38.7825 23.808C38.5905 23.6 38.4945 23.312 38.4945 22.944V11.784L33.7905 20.736C33.4865 21.296 33.0945 21.576 32.6145 21.576C32.1345 21.576 31.7425 21.296 31.4385 20.736L26.7105 11.88V22.944C26.7105 23.312 26.6145 23.6 26.4225 23.808C26.2305 24.016 25.9585 24.12 25.6065 24.12C25.2705 24.12 24.9985 24.016 24.7905 23.808C24.5985 23.584 24.5025 23.296 24.5025 22.944V8.208C24.5025 7.84 24.6145 7.544 24.8385 7.32C25.0625 7.08 25.3505 6.96 25.7025 6.96C26.1985 6.96 26.5985 7.248 26.9025 7.824L32.6385 18.792L38.3265 7.824C38.6305 7.248 39.0225 6.96 39.5025 6.96ZM49.4582 24.168C48.3062 24.168 47.2902 23.92 46.4102 23.424C45.5462 22.928 44.8742 22.224 44.3942 21.312C43.9302 20.384 43.6982 19.312 43.6982 18.096C43.6982 16.864 43.9302 15.792 44.3942 14.88C44.8742 13.952 45.5462 13.24 46.4102 12.744C47.2902 12.248 48.3062 12 49.4582 12C50.6102 12 51.6182 12.248 52.4822 12.744C53.3622 13.24 54.0342 13.952 54.4982 14.88C54.9782 15.792 55.2182 16.864 55.2182 18.096C55.2182 19.312 54.9782 20.384 54.4982 21.312C54.0342 22.224 53.3622 22.928 52.4822 23.424C51.6182 23.92 50.6102 24.168 49.4582 24.168ZM49.4582 22.248C50.5302 22.248 51.3462 21.896 51.9062 21.192C52.4822 20.488 52.7702 19.456 52.7702 18.096C52.7702 16.752 52.4822 15.728 51.9062 15.024C51.3302 14.304 50.5142 13.944 49.4582 13.944C48.4022 13.944 47.5862 14.304 47.0102 15.024C46.4342 15.728 46.1462 16.752 46.1462 18.096C46.1462 19.456 46.4262 20.488 46.9862 21.192C47.5622 21.896 48.3862 22.248 49.4582 22.248ZM64.2051 12C65.2291 12 66.1331 12.248 66.9171 12.744C67.7011 13.24 68.3091 13.944 68.7411 14.856C69.1891 15.768 69.4131 16.832 69.4131 18.048C69.4131 19.248 69.1891 20.312 68.7411 21.24C68.3091 22.168 67.6931 22.888 66.8931 23.4C66.1091 23.912 65.2131 24.168 64.2051 24.168C63.3251 24.168 62.5491 23.984 61.8771 23.616C61.2051 23.232 60.6931 22.688 60.3411 21.984V22.944C60.3411 23.296 60.2291 23.584 60.0051 23.808C59.7971 24.016 59.5091 24.12 59.1411 24.12C58.7731 24.12 58.4771 24.016 58.2531 23.808C58.0291 23.584 57.9171 23.296 57.9171 22.944V8.112C57.9171 7.76 58.0291 7.48 58.2531 7.272C58.4931 7.064 58.7971 6.96 59.1651 6.96C59.5171 6.96 59.7971 7.064 60.0051 7.272C60.2291 7.464 60.3411 7.728 60.3411 8.064V14.208C60.6931 13.504 61.2051 12.96 61.8771 12.576C62.5491 12.192 63.3251 12 64.2051 12ZM63.6291 22.248C64.6691 22.248 65.4771 21.88 66.0531 21.144C66.6451 20.408 66.9411 19.376 66.9411 18.048C66.9411 16.736 66.6531 15.728 66.0771 15.024C65.5011 14.304 64.6851 13.944 63.6291 13.944C62.5731 13.944 61.7571 14.304 61.1811 15.024C60.6211 15.744 60.3411 16.768 60.3411 18.096C60.3411 19.424 60.6211 20.448 61.1811 21.168C61.7571 21.888 62.5731 22.248 63.6291 22.248ZM78.3847 12C79.4087 12 80.3127 12.248 81.0967 12.744C81.8807 13.24 82.4887 13.944 82.9207 14.856C83.3687 15.768 83.5927 16.832 83.5927 18.048C83.5927 19.248 83.3687 20.312 82.9207 21.24C82.4887 22.168 81.8727 22.888 81.0727 23.4C80.2887 23.912 79.3927 24.168 78.3847 24.168C77.5047 24.168 76.7287 23.984 76.0567 23.616C75.3847 23.232 74.8727 22.688 74.5207 21.984V22.944C74.5207 23.296 74.4087 23.584 74.1847 23.808C73.9767 24.016 73.6887 24.12 73.3207 24.12C72.9527 24.12 72.6567 24.016 72.4327 23.808C72.2087 23.584 72.0967 23.296 72.0967 22.944V8.112C72.0967 7.76 72.2087 7.48 72.4327 7.272C72.6727 7.064 72.9767 6.96 73.3447 6.96C73.6967 6.96 73.9767 7.064 74.1847 7.272C74.4087 7.464 74.5207 7.728 74.5207 8.064V14.208C74.8727 13.504 75.3847 12.96 76.0567 12.576C76.7287 12.192 77.5047 12 78.3847 12ZM77.8087 22.248C78.8487 22.248 79.6567 21.88 80.2327 21.144C80.8247 20.408 81.1207 19.376 81.1207 18.048C81.1207 16.736 80.8327 15.728 80.2567 15.024C79.6807 14.304 78.8647 13.944 77.8087 13.944C76.7527 13.944 75.9367 14.304 75.3607 15.024C74.8007 15.744 74.5207 16.768 74.5207 18.096C74.5207 19.424 74.8007 20.448 75.3607 21.168C75.9367 21.888 76.7527 22.248 77.8087 22.248ZM87.5004 24.12C87.1484 24.12 86.8524 24.024 86.6124 23.832C86.3884 23.64 86.2764 23.352 86.2764 22.968V13.224C86.2764 12.84 86.3884 12.552 86.6124 12.36C86.8524 12.152 87.1484 12.048 87.5004 12.048C87.8524 12.048 88.1404 12.152 88.3644 12.36C88.5884 12.552 88.7004 12.84 88.7004 13.224V22.968C88.7004 23.352 88.5884 23.64 88.3644 23.832C88.1404 24.024 87.8524 24.12 87.5004 24.12ZM87.5004 9.696C87.0364 9.696 86.6684 9.568 86.3964 9.312C86.1244 9.056 85.9884 8.72 85.9884 8.304C85.9884 7.888 86.1244 7.56 86.3964 7.32C86.6684 7.064 87.0364 6.936 87.5004 6.936C87.9484 6.936 88.3084 7.064 88.5804 7.32C88.8684 7.56 89.0124 7.888 89.0124 8.304C89.0124 8.72 88.8764 9.056 88.6044 9.312C88.3324 9.568 87.9644 9.696 87.5004 9.696ZM101.665 6.96C102.033 6.96 102.329 7.064 102.553 7.272C102.777 7.48 102.889 7.76 102.889 8.112V22.944C102.889 23.312 102.777 23.6 102.553 23.808C102.345 24.016 102.057 24.12 101.689 24.12C101.321 24.12 101.025 24.016 100.801 23.808C100.593 23.6 100.489 23.312 100.489 22.944V21.984C100.137 22.688 99.6249 23.232 98.9529 23.616C98.2809 23.984 97.5049 24.168 96.6249 24.168C95.6169 24.168 94.7129 23.912 93.9129 23.4C93.1289 22.888 92.5129 22.168 92.0649 21.24C91.6329 20.312 91.4169 19.248 91.4169 18.048C91.4169 16.832 91.6329 15.768 92.0649 14.856C92.5129 13.944 93.1289 13.24 93.9129 12.744C94.6969 12.248 95.6009 12 96.6249 12C97.5049 12 98.2729 12.192 98.9289 12.576C99.6009 12.944 100.113 13.472 100.465 14.16V8.064C100.465 7.728 100.569 7.464 100.777 7.272C101.001 7.064 101.297 6.96 101.665 6.96ZM97.2009 22.248C98.2409 22.248 99.0489 21.888 99.6249 21.168C100.201 20.448 100.489 19.424 100.489 18.096C100.489 16.768 100.201 15.744 99.6249 15.024C99.0649 14.304 98.2569 13.944 97.2009 13.944C96.1449 13.944 95.3209 14.304 94.7289 15.024C94.1529 15.728 93.8649 16.736 93.8649 18.048C93.8649 19.36 94.1609 20.392 94.7529 21.144C95.3449 21.88 96.1609 22.248 97.2009 22.248Z" fill="#2D9CDB"/>
<path fill-rule="evenodd" clip-rule="evenodd" d="M12.2291 11.6098C11.7163 16.082 10.9108 15.3276 9.25383 17.2587L4.46453 21.9239C0.636187 25.5108 0.679421 31.3692 3.84013 33.1531C3.42195 30.5947 3.17525 28.4801 5.42177 26.3842L9.13304 22.7945C9.63353 22.421 12.2457 19.8685 12.7351 18.8776C14.0565 16.2029 13.2949 13.1147 12.2298 11.6102L12.2291 11.6098Z" fill="url(#paint0_linear)" stroke="black" stroke-width="0.00694391" stroke-miterlimit="2.61313"/>
<path fill-rule="evenodd" clip-rule="evenodd" d="M10.3646 6.18615C10.3514 9.25833 8.81001 9.77397 7.24869 11.512C6.32435 12.5404 4.36947 13.5897 3.6788 15.872C3.0232 18.0374 3.50723 19.9698 4.10193 21.0794C4.43631 20.6762 4.66041 19.5709 5.13478 18.9518L9.16465 14.8718C10.0418 14.0913 11.1858 13.4851 11.5521 11.1284C11.8444 9.24803 11.1228 7.04215 10.3653 6.18649L10.3646 6.18615Z" fill="#2D9CDB" stroke="black" stroke-width="0.00694391" stroke-miterlimit="2.61313"/>
<path fill-rule="evenodd" clip-rule="evenodd" d="M5.50147 10.6831C6.54218 9.90402 7.34848 8.82469 7.95649 8.35837C11.5607 5.59571 7.93362 1.52216 5.85782 5.12471C4.76625 7.01887 5.00148 8.85455 5.15388 10.893L5.50081 10.6827L5.50147 10.6831Z" fill="#2D9CDB" stroke="black" stroke-width="0.00694391" stroke-miterlimit="2.61313"/>
<defs>
<linearGradient id="paint0_linear" x1="7.24495" y1="6.29711" x2="1.81649" y2="34.9815" gradientUnits="userSpaceOnUse">
<stop stop-color="#1C6B95"/>
<stop offset="0.239216" stop-color="#188ECD"/>
<stop offset="0.670588" stop-color="#188ECD"/>
<stop offset="1" stop-color="#1C6B95"/>
</linearGradient>
</defs>
</svg>
