<?xml version="1.0" standalone="no"?>
<!DOCTYPE svg PUBLIC "-//W3C//DTD SVG 20010904//EN"
 "http://www.w3.org/TR/2001/REC-SVG-20010904/DTD/svg10.dtd">
<svg version="1.0" xmlns="http://www.w3.org/2000/svg"
 width="808.000000pt" height="808.000000pt" viewBox="0 0 808.000000 808.000000"
 preserveAspectRatio="xMidYMid meet">
<metadata>
Created by potrace 1.11, written by Peter Selinger 2001-2013
</metadata>
<g transform="translate(0.000000,808.000000) scale(0.100000,-0.100000)"
fill="#000000" stroke="none">
<path d="M3057 7514 c-1 -1 -24 -4 -52 -5 -101 -6 -260 -65 -345 -128 -63 -47
-148 -142 -180 -202 -17 -32 -31 -61 -31 -64 0 -2 -7 -21 -15 -40 -22 -53 -28
-107 -28 -225 1 -145 29 -285 114 -572 17 -55 30 -102 30 -104 0 -3 10 -2 23
0 12 3 51 8 86 11 36 3 67 8 70 9 3 2 22 7 41 10 19 3 60 13 90 21 30 9 64 18
76 20 32 7 152 47 324 108 158 56 275 93 320 101 185 32 352 102 434 181 152
145 120 340 -87 540 -165 159 -403 278 -637 319 -81 14 -226 27 -233 20z"/>
<path d="M4476 6668 c3 -13 5 -63 5 -113 1 -209 -89 -349 -287 -448 -82 -41
-143 -63 -393 -138 -129 -38 -289 -90 -355 -115 -103 -38 -364 -113 -446 -128
-46 -8 -184 -47 -295 -83 -289 -93 -473 -219 -557 -379 -55 -105 -69 -164 -74
-299 -5 -173 29 -311 122 -498 37 -73 167 -270 205 -310 12 -12 32 -37 46 -54
14 -18 31 -33 38 -33 20 0 88 73 140 152 53 79 155 186 195 205 14 6 77 28
140 48 63 21 160 53 215 72 55 19 105 35 110 37 6 1 33 10 60 20 78 29 79 29
90 32 6 1 138 46 295 99 563 191 601 203 730 230 367 77 543 189 622 397 23
61 45 177 43 228 -3 60 -16 151 -25 176 -5 13 -8 24 -5 24 2 0 -9 37 -25 81
-92 253 -256 501 -472 712 -60 59 -113 107 -118 107 -5 0 -7 -10 -4 -22z"/>
<path d="M5402 5323 c3 -73 -30 -295 -58 -393 -22 -72 -76 -177 -114 -217 -69
-74 -200 -137 -350 -168 -121 -26 -310 -80 -390 -112 -77 -31 -145 -53 -565
-184 -176 -55 -345 -108 -375 -119 -30 -10 -102 -32 -160 -50 -58 -18 -166
-51 -240 -75 -149 -48 -264 -84 -445 -140 -176 -54 -294 -99 -393 -149 -472
-237 -685 -617 -597 -1061 12 -60 65 -206 100 -275 161 -320 470 -622 863
-845 57 -31 105 -55 108 -52 3 3 -1 18 -10 35 -50 97 -143 362 -172 492 -17
78 -23 216 -12 286 16 96 89 215 176 287 61 51 230 147 258 147 3 0 20 6 37
14 18 8 79 28 137 46 58 17 112 34 120 37 8 3 20 7 27 9 7 1 78 23 160 49 81
26 154 49 163 50 8 2 42 13 75 23 61 20 225 71 440 137 66 20 161 50 210 66
50 16 99 31 110 34 260 57 792 235 1075 360 165 72 254 129 312 199 186 223
200 535 41 886 -41 90 -129 245 -149 261 -8 6 -14 16 -14 21 0 28 -278 349
-352 406 -14 12 -17 11 -16 -5z"/>
</g>
</svg>
